<svg width="30" height="21" viewBox="0 0 30 21" fill="none" xmlns="http://www.w3.org/2000/svg">
<path d="M0.000244141 10.5C0.000244141 9.67157 0.671817 9 1.50024 9H28.5002C29.3287 9 30.0002 9.67157 30.0002 10.5C30.0002 11.3284 29.3287 12 28.5002 12H1.50024C0.671817 12 0.000244141 11.3284 0.000244141 10.5Z" fill="black"/>
<path d="M0.000244141 1.5C0.000244141 0.671573 0.671817 0 1.50024 0H18.5002C19.3287 0 20.0002 0.671573 20.0002 1.5C20.0002 2.32843 19.3287 3 18.5002 3H1.50024C0.671817 3 0.000244141 2.32843 0.000244141 1.5Z" fill="black"/>
<path d="M0 19.5C0 18.6716 0.671573 18 1.5 18H28.5C29.3284 18 30 18.6716 30 19.5C30 20.3284 29.3284 21 28.5 21H1.5C0.671573 21 0 20.3284 0 19.5Z" fill="black"/>
</svg>
