<svg width="24" height="22" viewBox="0 0 24 22" fill="none" xmlns="http://www.w3.org/2000/svg">
<path fill-rule="evenodd" clip-rule="evenodd" d="M7.86547 2.37353e-07C7.4944 -0.000182342 7.1309 0.104973 6.81725 0.30324C6.50359 0.501507 6.25266 0.784738 6.09363 1.12C5.32755 1.12672 4.73171 1.16144 4.19859 1.36976C3.56217 1.6187 3.00869 2.04177 2.60147 2.59056C2.19043 3.14272 1.99667 3.8528 1.73235 4.82832L1.67971 5.01872L1.10515 8.3384C0.897946 8.48176 0.717626 8.652 0.560826 8.85248C-0.448294 10.1438 0.0321864 12.0669 0.993146 15.9096C1.60355 18.3546 1.90931 19.5765 2.82099 20.2888C3.73267 21 4.99267 21 7.51267 21H12.6983C15.2183 21 16.4783 21 17.3899 20.2888C18.3016 19.5765 18.6063 18.3546 19.2178 15.9096C20.1787 12.0658 20.6592 10.145 19.6501 8.85248C19.4958 8.65374 19.3119 8.47997 19.1047 8.33728L18.5301 5.01984L18.4786 4.82944C18.2131 3.8528 18.0194 3.14272 17.6095 2.58944C17.2021 2.04107 16.6486 1.6184 16.0123 1.36976C15.4792 1.16144 14.8823 1.12672 14.1173 1.12112C13.9584 0.785649 13.7076 0.502186 13.3939 0.303713C13.0802 0.105241 12.7167 -8.18896e-05 12.3455 2.37353e-07H7.86547ZM17.2936 7.72352L16.8882 5.38496C16.5712 4.22016 16.4559 3.85392 16.261 3.59184C16.0417 3.29628 15.7436 3.06844 15.4008 2.9344C15.1544 2.83808 14.8565 2.81008 14.1151 2.80224C13.9559 3.13674 13.7052 3.41928 13.392 3.61711C13.0788 3.81494 12.7159 3.91996 12.3455 3.92H7.86547C7.49502 3.91996 7.13217 3.81494 6.81897 3.61711C6.50577 3.41928 6.25505 3.13674 6.09587 2.80224C5.35331 2.81008 5.05651 2.83808 4.81011 2.9344C4.46735 3.06844 4.16925 3.29628 3.94995 3.59184C3.75507 3.85392 3.63971 4.21904 3.32275 5.38384L2.91731 7.72352C4.03507 7.56 5.52467 7.56 7.51267 7.56H12.6983C14.6863 7.56 16.1759 7.56 17.2936 7.72352ZM5.62547 11.2C5.84825 11.2 6.0619 11.2885 6.21944 11.446C6.37697 11.6036 6.46547 11.8172 6.46547 12.04V16.52C6.46547 16.7428 6.37697 16.9564 6.21944 17.114C6.0619 17.2715 5.84825 17.36 5.62547 17.36C5.40268 17.36 5.18903 17.2715 5.0315 17.114C4.87397 16.9564 4.78547 16.7428 4.78547 16.52V12.04C4.78547 11.8172 4.87397 11.6036 5.0315 11.446C5.18903 11.2885 5.40268 11.2 5.62547 11.2ZM15.4255 12.04C15.4255 11.8172 15.337 11.6036 15.1794 11.446C15.0219 11.2885 14.8082 11.2 14.5855 11.2C14.3627 11.2 14.149 11.2885 13.9915 11.446C13.834 11.6036 13.7455 11.8172 13.7455 12.04V16.52C13.7455 16.7428 13.834 16.9564 13.9915 17.114C14.149 17.2715 14.3627 17.36 14.5855 17.36C14.8082 17.36 15.0219 17.2715 15.1794 17.114C15.337 16.9564 15.4255 16.7428 15.4255 16.52V12.04ZM10.1055 11.2C10.3282 11.2 10.5419 11.2885 10.6994 11.446C10.857 11.6036 10.9455 11.8172 10.9455 12.04V16.52C10.9455 16.7428 10.857 16.9564 10.6994 17.114C10.5419 17.2715 10.3282 17.36 10.1055 17.36C9.88268 17.36 9.66903 17.2715 9.5115 17.114C9.35397 16.9564 9.26547 16.7428 9.26547 16.52V12.04C9.26547 11.8172 9.35397 11.6036 9.5115 11.446C9.66903 11.2885 9.88268 11.2 10.1055 11.2Z" fill="black"/>
<path d="M24 17C24 19.7614 21.7614 22 19 22C16.2386 22 14 19.7614 14 17C14 14.2386 16.2386 12 19 12C21.7614 12 24 14.2386 24 17Z" fill="#B4B2B2"/>
<path d="M19.5682 20.0795C19.1932 20.0795 18.8589 20.0152 18.5653 19.8864C18.2737 19.7576 18.0417 19.5786 17.8693 19.3494C17.6989 19.1184 17.6061 18.8504 17.5909 18.5455H18.3068C18.322 18.733 18.3864 18.8949 18.5 19.0312C18.6136 19.1657 18.7623 19.2699 18.946 19.3438C19.1297 19.4176 19.3333 19.4545 19.5568 19.4545C19.8068 19.4545 20.0284 19.411 20.2216 19.3239C20.4148 19.2367 20.5663 19.1155 20.6761 18.9602C20.786 18.8049 20.8409 18.625 20.8409 18.4205C20.8409 18.2064 20.7879 18.018 20.6818 17.8551C20.5758 17.6903 20.4205 17.5616 20.2159 17.4688C20.0114 17.3759 19.7614 17.3295 19.4659 17.3295H19V16.7045H19.4659C19.697 16.7045 19.8996 16.6629 20.0739 16.5795C20.25 16.4962 20.3873 16.3788 20.4858 16.2273C20.5862 16.0758 20.6364 15.8977 20.6364 15.6932C20.6364 15.4962 20.5928 15.3248 20.5057 15.179C20.4186 15.0331 20.2955 14.9195 20.1364 14.8381C19.9792 14.7566 19.7936 14.7159 19.5795 14.7159C19.3788 14.7159 19.1894 14.7528 19.0114 14.8267C18.8352 14.8987 18.6913 15.0038 18.5795 15.142C18.4678 15.2784 18.4072 15.4432 18.3977 15.6364H17.7159C17.7273 15.3314 17.8191 15.0644 17.9915 14.8352C18.1638 14.6042 18.3892 14.4242 18.6676 14.2955C18.9479 14.1667 19.2557 14.1023 19.5909 14.1023C19.9508 14.1023 20.2595 14.1752 20.517 14.321C20.7746 14.465 20.9725 14.6553 21.1108 14.892C21.2491 15.1288 21.3182 15.3845 21.3182 15.6591C21.3182 15.9867 21.232 16.2661 21.0597 16.4972C20.8892 16.7282 20.6572 16.8883 20.3636 16.9773V17.0227C20.7311 17.0833 21.018 17.2396 21.2244 17.4915C21.4309 17.7415 21.5341 18.0511 21.5341 18.4205C21.5341 18.7367 21.4479 19.0208 21.2756 19.2727C21.1051 19.5227 20.8722 19.7197 20.5767 19.8636C20.2812 20.0076 19.9451 20.0795 19.5682 20.0795Z" fill="white"/>
</svg>
