<svg width="100" height="95" viewBox="0 0 100 95" fill="none" xmlns="http://www.w3.org/2000/svg">
<path d="M0 0H20.3703L22.7006 8.55418H100L84.3246 55.6021H33.2663L31.1284 64.1563H94.0694V72.7105H20.1822L25.5099 51.3721L13.8367 8.55418H0V0ZM33.1979 47.048H78.1588L88.1387 17.1084H25.0353L33.1979 47.048ZM17.1035 85.5418C17.1035 83.2731 18.0045 81.0973 19.6083 79.493C21.212 77.8888 23.3872 76.9876 25.6553 76.9876C27.9233 76.9876 30.0985 77.8888 31.7023 79.493C33.3061 81.0973 34.207 83.2731 34.207 85.5418C34.207 87.8105 33.3061 89.9863 31.7023 91.5905C30.0985 93.1947 27.9233 94.0959 25.6553 94.0959C23.3872 94.0959 21.212 93.1947 19.6083 91.5905C18.0045 89.9863 17.1035 87.8105 17.1035 85.5418ZM76.9658 85.5418C76.9658 83.2731 77.8668 81.0973 79.4706 79.493C81.0744 77.8888 83.2495 76.9876 85.5176 76.9876C87.7857 76.9876 89.9608 77.8888 91.5646 79.493C93.1684 81.0973 94.0694 83.2731 94.0694 85.5418C94.0694 87.8105 93.1684 89.9863 91.5646 91.5905C89.9608 93.1947 87.7857 94.0959 85.5176 94.0959C83.2495 94.0959 81.0744 93.1947 79.4706 91.5905C77.8668 89.9863 76.9658 87.8105 76.9658 85.5418Z" fill="black"/>
</svg>
