<svg width="274" height="13" viewBox="0 0 274 13" fill="none" xmlns="http://www.w3.org/2000/svg">
<path d="M10.4 6.272C10.4 7.13067 10.264 7.912 9.992 8.616C9.72 9.32 9.336 9.92267 8.84 10.424C8.344 10.9253 7.74667 11.3147 7.048 11.592C6.35467 11.864 5.58667 12 4.744 12H0.464V0.535999H4.744C5.58667 0.535999 6.35467 0.674666 7.048 0.952C7.74667 1.224 8.344 1.61333 8.84 2.12C9.336 2.62133 9.72 3.224 9.992 3.928C10.264 4.632 10.4 5.41333 10.4 6.272ZM8.808 6.272C8.808 5.568 8.712 4.93867 8.52 4.384C8.328 3.82933 8.056 3.36 7.704 2.976C7.352 2.592 6.92533 2.29867 6.424 2.096C5.92267 1.89333 5.36267 1.792 4.744 1.792H2.016V10.744H4.744C5.36267 10.744 5.92267 10.6427 6.424 10.44C6.92533 10.2373 7.352 9.94667 7.704 9.568C8.056 9.184 8.328 8.71467 8.52 8.16C8.712 7.60533 8.808 6.976 8.808 6.272ZM18.4114 7.744L16.6114 3.08C16.558 2.94133 16.502 2.78133 16.4434 2.6C16.3847 2.41333 16.3287 2.216 16.2754 2.008C16.1634 2.44 16.0487 2.8 15.9314 3.088L14.1314 7.744H18.4114ZM21.6434 12H20.4434C20.3047 12 20.1927 11.9653 20.1074 11.896C20.022 11.8267 19.958 11.7387 19.9154 11.632L18.8434 8.864H13.6994L12.6274 11.632C12.5954 11.728 12.534 11.8133 12.4434 11.888C12.3527 11.9627 12.2407 12 12.1074 12H10.9074L15.4914 0.535999H17.0594L21.6434 12ZM26.3305 7.432V12H24.7785V7.432L20.5785 0.535999H21.9385C22.0772 0.535999 22.1865 0.570666 22.2665 0.639999C22.3465 0.703999 22.4158 0.789333 22.4745 0.896L25.0985 5.352C25.1945 5.53867 25.2825 5.71467 25.3625 5.88C25.4425 6.04 25.5118 6.20267 25.5705 6.368C25.6292 6.20267 25.6958 6.04 25.7705 5.88C25.8452 5.71467 25.9278 5.53867 26.0185 5.352L28.6345 0.896C28.6825 0.805333 28.7492 0.722666 28.8345 0.648C28.9198 0.573333 29.0292 0.535999 29.1625 0.535999H30.5305L26.3305 7.432ZM37.5155 2.328C37.4675 2.408 37.4142 2.46933 37.3555 2.512C37.3022 2.54933 37.2355 2.568 37.1555 2.568C37.0648 2.568 36.9582 2.52267 36.8355 2.432C36.7128 2.34133 36.5582 2.24267 36.3715 2.136C36.1902 2.024 35.9688 1.92267 35.7075 1.832C35.4515 1.74133 35.1395 1.696 34.7715 1.696C34.4248 1.696 34.1182 1.744 33.8515 1.84C33.5902 1.93067 33.3688 2.056 33.1875 2.216C33.0115 2.376 32.8782 2.56533 32.7875 2.784C32.6968 2.99733 32.6515 3.22933 32.6515 3.48C32.6515 3.8 32.7288 4.06667 32.8835 4.28C33.0435 4.488 33.2515 4.66667 33.5075 4.816C33.7688 4.96533 34.0622 5.096 34.3875 5.208C34.7182 5.31467 35.0542 5.42667 35.3955 5.544C35.7422 5.66133 36.0782 5.79467 36.4035 5.944C36.7342 6.088 37.0275 6.272 37.2835 6.496C37.5448 6.72 37.7528 6.99467 37.9075 7.32C38.0675 7.64533 38.1475 8.04533 38.1475 8.52C38.1475 9.02133 38.0622 9.49333 37.8915 9.936C37.7208 10.3733 37.4702 10.7547 37.1395 11.08C36.8142 11.4053 36.4115 11.6613 35.9315 11.848C35.4568 12.0347 34.9155 12.128 34.3075 12.128C33.5608 12.128 32.8835 11.9947 32.2755 11.728C31.6675 11.456 31.1475 11.0907 30.7155 10.632L31.1635 9.896C31.2062 9.83733 31.2568 9.78933 31.3155 9.752C31.3795 9.70933 31.4488 9.688 31.5235 9.688C31.5928 9.688 31.6702 9.71733 31.7555 9.776C31.8462 9.82933 31.9475 9.89867 32.0595 9.984C32.1715 10.0693 32.2995 10.1627 32.4435 10.264C32.5875 10.3653 32.7502 10.4587 32.9315 10.544C33.1182 10.6293 33.3288 10.7013 33.5635 10.76C33.7982 10.8133 34.0622 10.84 34.3555 10.84C34.7235 10.84 35.0515 10.7893 35.3395 10.688C35.6275 10.5867 35.8702 10.4453 36.0675 10.264C36.2702 10.0773 36.4248 9.856 36.5315 9.6C36.6382 9.344 36.6915 9.05867 36.6915 8.744C36.6915 8.39733 36.6115 8.11467 36.4515 7.896C36.2968 7.672 36.0915 7.48533 35.8355 7.336C35.5795 7.18667 35.2862 7.06133 34.9555 6.96C34.6248 6.85333 34.2888 6.74667 33.9475 6.64C33.6062 6.528 33.2702 6.4 32.9395 6.256C32.6088 6.112 32.3155 5.92533 32.0595 5.696C31.8035 5.46667 31.5955 5.18133 31.4355 4.84C31.2808 4.49333 31.2035 4.06667 31.2035 3.56C31.2035 3.15467 31.2808 2.76267 31.4355 2.384C31.5955 2.00533 31.8248 1.66933 32.1235 1.376C32.4275 1.08267 32.7982 0.848 33.2355 0.672C33.6782 0.495999 34.1848 0.407999 34.7555 0.407999C35.3955 0.407999 35.9768 0.509333 36.4995 0.712C37.0275 0.914666 37.4915 1.208 37.8915 1.592L37.5155 2.328ZM94.6583 0.535999V12H93.1063V6.784H86.9223V12H85.3703V0.535999H86.9223V5.648H93.1063V0.535999H94.6583ZM108.181 6.272C108.181 7.13067 108.045 7.92 107.773 8.64C107.501 9.35467 107.117 9.97067 106.621 10.488C106.125 11.0053 105.528 11.408 104.829 11.696C104.136 11.9787 103.368 12.12 102.525 12.12C101.682 12.12 100.914 11.9787 100.221 11.696C99.5277 11.408 98.933 11.0053 98.437 10.488C97.941 9.97067 97.557 9.35467 97.285 8.64C97.013 7.92 96.877 7.13067 96.877 6.272C96.877 5.41333 97.013 4.62667 97.285 3.912C97.557 3.192 97.941 2.57333 98.437 2.056C98.933 1.53333 99.5277 1.128 100.221 0.839999C100.914 0.551999 101.682 0.407999 102.525 0.407999C103.368 0.407999 104.136 0.551999 104.829 0.839999C105.528 1.128 106.125 1.53333 106.621 2.056C107.117 2.57333 107.501 3.192 107.773 3.912C108.045 4.62667 108.181 5.41333 108.181 6.272ZM106.589 6.272C106.589 5.568 106.493 4.936 106.301 4.376C106.109 3.816 105.837 3.344 105.485 2.96C105.133 2.57067 104.706 2.272 104.205 2.064C103.704 1.856 103.144 1.752 102.525 1.752C101.912 1.752 101.354 1.856 100.853 2.064C100.352 2.272 99.9223 2.57067 99.565 2.96C99.213 3.344 98.941 3.816 98.749 4.376C98.557 4.936 98.461 5.568 98.461 6.272C98.461 6.976 98.557 7.608 98.749 8.168C98.941 8.72267 99.213 9.19467 99.565 9.584C99.9223 9.968 100.352 10.264 100.853 10.472C101.354 10.6747 101.912 10.776 102.525 10.776C103.144 10.776 103.704 10.6747 104.205 10.472C104.706 10.264 105.133 9.968 105.485 9.584C105.837 9.19467 106.109 8.72267 106.301 8.168C106.493 7.608 106.589 6.976 106.589 6.272ZM114.826 10.768C115.3 10.768 115.724 10.688 116.098 10.528C116.471 10.368 116.786 10.144 117.042 9.856C117.303 9.568 117.5 9.224 117.634 8.824C117.772 8.424 117.842 7.984 117.842 7.504V0.535999H119.386V7.504C119.386 8.16533 119.279 8.77867 119.066 9.344C118.858 9.90933 118.556 10.4 118.161 10.816C117.772 11.2267 117.295 11.5493 116.73 11.784C116.164 12.0187 115.53 12.136 114.826 12.136C114.122 12.136 113.487 12.0187 112.922 11.784C112.356 11.5493 111.876 11.2267 111.482 10.816C111.087 10.4 110.783 9.90933 110.57 9.344C110.362 8.77867 110.258 8.16533 110.258 7.504V0.535999H111.802V7.496C111.802 7.976 111.868 8.416 112.002 8.816C112.14 9.216 112.338 9.56 112.594 9.848C112.855 10.136 113.172 10.3627 113.546 10.528C113.924 10.688 114.351 10.768 114.826 10.768ZM125.343 6.088C125.791 6.088 126.186 6.03467 126.527 5.928C126.874 5.816 127.162 5.66133 127.391 5.464C127.626 5.26133 127.802 5.02133 127.919 4.744C128.036 4.46667 128.095 4.16 128.095 3.824C128.095 3.14133 127.871 2.62667 127.423 2.28C126.975 1.93333 126.303 1.76 125.407 1.76H123.711V6.088H125.343ZM130.639 12H129.263C128.98 12 128.772 11.8907 128.639 11.672L125.663 7.576C125.572 7.448 125.474 7.35733 125.367 7.304C125.266 7.24533 125.106 7.216 124.887 7.216H123.711V12H122.167V0.535999H125.407C126.132 0.535999 126.759 0.610666 127.287 0.759999C127.815 0.904 128.25 1.11467 128.591 1.392C128.938 1.66933 129.194 2.00533 129.359 2.4C129.524 2.78933 129.607 3.22667 129.607 3.712C129.607 4.11733 129.543 4.496 129.415 4.848C129.287 5.2 129.1 5.51733 128.855 5.8C128.615 6.07733 128.319 6.31467 127.967 6.512C127.62 6.70933 127.226 6.85867 126.783 6.96C126.98 7.072 127.151 7.23467 127.295 7.448L130.639 12ZM138.062 2.328C138.014 2.408 137.961 2.46933 137.902 2.512C137.849 2.54933 137.782 2.568 137.702 2.568C137.612 2.568 137.505 2.52267 137.382 2.432C137.26 2.34133 137.105 2.24267 136.918 2.136C136.737 2.024 136.516 1.92267 136.254 1.832C135.998 1.74133 135.686 1.696 135.318 1.696C134.972 1.696 134.665 1.744 134.398 1.84C134.137 1.93067 133.916 2.056 133.734 2.216C133.558 2.376 133.425 2.56533 133.334 2.784C133.244 2.99733 133.198 3.22933 133.198 3.48C133.198 3.8 133.276 4.06667 133.43 4.28C133.59 4.488 133.798 4.66667 134.054 4.816C134.316 4.96533 134.609 5.096 134.934 5.208C135.265 5.31467 135.601 5.42667 135.942 5.544C136.289 5.66133 136.625 5.79467 136.95 5.944C137.281 6.088 137.574 6.272 137.83 6.496C138.092 6.72 138.3 6.99467 138.454 7.32C138.614 7.64533 138.694 8.04533 138.694 8.52C138.694 9.02133 138.609 9.49333 138.438 9.936C138.268 10.3733 138.017 10.7547 137.686 11.08C137.361 11.4053 136.958 11.6613 136.478 11.848C136.004 12.0347 135.462 12.128 134.854 12.128C134.108 12.128 133.43 11.9947 132.822 11.728C132.214 11.456 131.694 11.0907 131.262 10.632L131.71 9.896C131.753 9.83733 131.804 9.78933 131.862 9.752C131.926 9.70933 131.996 9.688 132.07 9.688C132.14 9.688 132.217 9.71733 132.302 9.776C132.393 9.82933 132.494 9.89867 132.606 9.984C132.718 10.0693 132.846 10.1627 132.99 10.264C133.134 10.3653 133.297 10.4587 133.478 10.544C133.665 10.6293 133.876 10.7013 134.11 10.76C134.345 10.8133 134.609 10.84 134.902 10.84C135.27 10.84 135.598 10.7893 135.886 10.688C136.174 10.5867 136.417 10.4453 136.614 10.264C136.817 10.0773 136.972 9.856 137.078 9.6C137.185 9.344 137.238 9.05867 137.238 8.744C137.238 8.39733 137.158 8.11467 136.998 7.896C136.844 7.672 136.638 7.48533 136.382 7.336C136.126 7.18667 135.833 7.06133 135.502 6.96C135.172 6.85333 134.836 6.74667 134.494 6.64C134.153 6.528 133.817 6.4 133.486 6.256C133.156 6.112 132.862 5.92533 132.606 5.696C132.35 5.46667 132.142 5.18133 131.982 4.84C131.828 4.49333 131.75 4.06667 131.75 3.56C131.75 3.15467 131.828 2.76267 131.982 2.384C132.142 2.00533 132.372 1.66933 132.67 1.376C132.974 1.08267 133.345 0.848 133.782 0.672C134.225 0.495999 134.732 0.407999 135.302 0.407999C135.942 0.407999 136.524 0.509333 137.046 0.712C137.574 0.914666 138.038 1.208 138.438 1.592L138.062 2.328ZM177.376 0.535999V12H176.016V3.576C176.016 3.464 176.019 3.344 176.024 3.216C176.035 3.088 176.046 2.95733 176.056 2.824L172.12 9.992C171.998 10.232 171.811 10.352 171.56 10.352H171.336C171.086 10.352 170.899 10.232 170.776 9.992L166.76 2.792C166.792 3.07467 166.808 3.336 166.808 3.576V12H165.448V0.535999H166.592C166.731 0.535999 166.838 0.549333 166.912 0.575999C166.987 0.602666 167.059 0.677333 167.128 0.799999L171.088 7.856C171.152 7.984 171.214 8.11733 171.272 8.256C171.336 8.39467 171.395 8.536 171.448 8.68C171.502 8.536 171.558 8.39467 171.616 8.256C171.675 8.112 171.739 7.976 171.808 7.848L175.696 0.799999C175.76 0.677333 175.83 0.602666 175.904 0.575999C175.984 0.549333 176.094 0.535999 176.232 0.535999H177.376ZM181.86 12H180.308V0.535999H181.86V12ZM194.08 0.535999V12H193.304C193.181 12 193.077 11.9787 192.992 11.936C192.912 11.8933 192.832 11.8213 192.752 11.72L186.12 3.08C186.131 3.21333 186.139 3.344 186.144 3.472C186.149 3.6 186.152 3.72 186.152 3.832V12H184.792V0.535999H185.592C185.661 0.535999 185.72 0.541333 185.768 0.551999C185.816 0.557333 185.859 0.570666 185.896 0.591999C185.933 0.607999 185.971 0.634666 186.008 0.672C186.045 0.704 186.085 0.746666 186.128 0.799999L192.76 9.432C192.749 9.29333 192.739 9.16 192.728 9.032C192.723 8.89867 192.72 8.77333 192.72 8.656V0.535999H194.08ZM202.875 2.328C202.827 2.408 202.774 2.46933 202.715 2.512C202.662 2.54933 202.595 2.568 202.515 2.568C202.424 2.568 202.318 2.52267 202.195 2.432C202.072 2.34133 201.918 2.24267 201.731 2.136C201.55 2.024 201.328 1.92267 201.067 1.832C200.811 1.74133 200.499 1.696 200.131 1.696C199.784 1.696 199.478 1.744 199.211 1.84C198.95 1.93067 198.728 2.056 198.547 2.216C198.371 2.376 198.238 2.56533 198.147 2.784C198.056 2.99733 198.011 3.22933 198.011 3.48C198.011 3.8 198.088 4.06667 198.243 4.28C198.403 4.488 198.611 4.66667 198.867 4.816C199.128 4.96533 199.422 5.096 199.747 5.208C200.078 5.31467 200.414 5.42667 200.755 5.544C201.102 5.66133 201.438 5.79467 201.763 5.944C202.094 6.088 202.387 6.272 202.643 6.496C202.904 6.72 203.112 6.99467 203.267 7.32C203.427 7.64533 203.507 8.04533 203.507 8.52C203.507 9.02133 203.422 9.49333 203.251 9.936C203.08 10.3733 202.83 10.7547 202.499 11.08C202.174 11.4053 201.771 11.6613 201.291 11.848C200.816 12.0347 200.275 12.128 199.667 12.128C198.92 12.128 198.243 11.9947 197.635 11.728C197.027 11.456 196.507 11.0907 196.075 10.632L196.523 9.896C196.566 9.83733 196.616 9.78933 196.675 9.752C196.739 9.70933 196.808 9.688 196.883 9.688C196.952 9.688 197.03 9.71733 197.115 9.776C197.206 9.82933 197.307 9.89867 197.419 9.984C197.531 10.0693 197.659 10.1627 197.803 10.264C197.947 10.3653 198.11 10.4587 198.291 10.544C198.478 10.6293 198.688 10.7013 198.923 10.76C199.158 10.8133 199.422 10.84 199.715 10.84C200.083 10.84 200.411 10.7893 200.699 10.688C200.987 10.5867 201.23 10.4453 201.427 10.264C201.63 10.0773 201.784 9.856 201.891 9.6C201.998 9.344 202.051 9.05867 202.051 8.744C202.051 8.39733 201.971 8.11467 201.811 7.896C201.656 7.672 201.451 7.48533 201.195 7.336C200.939 7.18667 200.646 7.06133 200.315 6.96C199.984 6.85333 199.648 6.74667 199.307 6.64C198.966 6.528 198.63 6.4 198.299 6.256C197.968 6.112 197.675 5.92533 197.419 5.696C197.163 5.46667 196.955 5.18133 196.795 4.84C196.64 4.49333 196.563 4.06667 196.563 3.56C196.563 3.15467 196.64 2.76267 196.795 2.384C196.955 2.00533 197.184 1.66933 197.483 1.376C197.787 1.08267 198.158 0.848 198.595 0.672C199.038 0.495999 199.544 0.407999 200.115 0.407999C200.755 0.407999 201.336 0.509333 201.859 0.712C202.387 0.914666 202.851 1.208 203.251 1.592L202.875 2.328ZM252.5 2.328C252.452 2.408 252.399 2.46933 252.34 2.512C252.287 2.54933 252.22 2.568 252.14 2.568C252.049 2.568 251.943 2.52267 251.82 2.432C251.697 2.34133 251.543 2.24267 251.356 2.136C251.175 2.024 250.953 1.92267 250.692 1.832C250.436 1.74133 250.124 1.696 249.756 1.696C249.409 1.696 249.103 1.744 248.836 1.84C248.575 1.93067 248.353 2.056 248.172 2.216C247.996 2.376 247.863 2.56533 247.772 2.784C247.681 2.99733 247.636 3.22933 247.636 3.48C247.636 3.8 247.713 4.06667 247.868 4.28C248.028 4.488 248.236 4.66667 248.492 4.816C248.753 4.96533 249.047 5.096 249.372 5.208C249.703 5.31467 250.039 5.42667 250.38 5.544C250.727 5.66133 251.063 5.79467 251.388 5.944C251.719 6.088 252.012 6.272 252.268 6.496C252.529 6.72 252.737 6.99467 252.892 7.32C253.052 7.64533 253.132 8.04533 253.132 8.52C253.132 9.02133 253.047 9.49333 252.876 9.936C252.705 10.3733 252.455 10.7547 252.124 11.08C251.799 11.4053 251.396 11.6613 250.916 11.848C250.441 12.0347 249.9 12.128 249.292 12.128C248.545 12.128 247.868 11.9947 247.26 11.728C246.652 11.456 246.132 11.0907 245.7 10.632L246.148 9.896C246.191 9.83733 246.241 9.78933 246.3 9.752C246.364 9.70933 246.433 9.688 246.508 9.688C246.577 9.688 246.655 9.71733 246.74 9.776C246.831 9.82933 246.932 9.89867 247.044 9.984C247.156 10.0693 247.284 10.1627 247.428 10.264C247.572 10.3653 247.735 10.4587 247.916 10.544C248.103 10.6293 248.313 10.7013 248.548 10.76C248.783 10.8133 249.047 10.84 249.34 10.84C249.708 10.84 250.036 10.7893 250.324 10.688C250.612 10.5867 250.855 10.4453 251.052 10.264C251.255 10.0773 251.409 9.856 251.516 9.6C251.623 9.344 251.676 9.05867 251.676 8.744C251.676 8.39733 251.596 8.11467 251.436 7.896C251.281 7.672 251.076 7.48533 250.82 7.336C250.564 7.18667 250.271 7.06133 249.94 6.96C249.609 6.85333 249.273 6.74667 248.932 6.64C248.591 6.528 248.255 6.4 247.924 6.256C247.593 6.112 247.3 5.92533 247.044 5.696C246.788 5.46667 246.58 5.18133 246.42 4.84C246.265 4.49333 246.188 4.06667 246.188 3.56C246.188 3.15467 246.265 2.76267 246.42 2.384C246.58 2.00533 246.809 1.66933 247.108 1.376C247.412 1.08267 247.783 0.848 248.22 0.672C248.663 0.495999 249.169 0.407999 249.74 0.407999C250.38 0.407999 250.961 0.509333 251.484 0.712C252.012 0.914666 252.476 1.208 252.876 1.592L252.5 2.328ZM262.395 10.736L262.387 12H255.323V0.535999H262.387V1.8H256.875V5.608H261.339V6.824H256.875V10.736H262.395ZM272.356 9.632C272.441 9.632 272.516 9.66667 272.58 9.736L273.196 10.4C272.726 10.944 272.156 11.368 271.484 11.672C270.817 11.976 270.009 12.128 269.06 12.128C268.238 12.128 267.492 11.9867 266.82 11.704C266.148 11.416 265.574 11.016 265.1 10.504C264.625 9.98667 264.257 9.368 263.996 8.648C263.734 7.928 263.604 7.136 263.604 6.272C263.604 5.408 263.74 4.616 264.012 3.896C264.284 3.176 264.665 2.55733 265.156 2.04C265.652 1.52267 266.244 1.12267 266.932 0.839999C267.62 0.551999 268.38 0.407999 269.212 0.407999C270.028 0.407999 270.748 0.538666 271.372 0.799999C271.996 1.06133 272.545 1.416 273.02 1.864L272.508 2.576C272.476 2.62933 272.433 2.67467 272.38 2.712C272.332 2.744 272.265 2.76 272.18 2.76C272.084 2.76 271.966 2.70933 271.828 2.608C271.689 2.50133 271.508 2.384 271.284 2.256C271.06 2.128 270.78 2.01333 270.444 1.912C270.108 1.80533 269.694 1.752 269.204 1.752C268.612 1.752 268.07 1.856 267.58 2.064C267.089 2.26667 266.665 2.56267 266.308 2.952C265.956 3.34133 265.681 3.816 265.484 4.376C265.286 4.936 265.188 5.568 265.188 6.272C265.188 6.98667 265.289 7.624 265.492 8.184C265.7 8.744 265.98 9.21867 266.332 9.608C266.689 9.992 267.108 10.2853 267.588 10.488C268.073 10.6907 268.596 10.792 269.156 10.792C269.497 10.792 269.804 10.7733 270.076 10.736C270.353 10.6933 270.606 10.6293 270.836 10.544C271.07 10.4587 271.286 10.352 271.484 10.224C271.686 10.0907 271.886 9.93333 272.084 9.752C272.174 9.672 272.265 9.632 272.356 9.632Z" fill="black"/>
</svg>
