<svg width="93" height="30" viewBox="0 0 93 30" fill="none" xmlns="http://www.w3.org/2000/svg">
<path d="M37 15.5C37 15.7761 36.7761 16 36.5 16C36.2239 16 36 15.7761 36 15.5C36 15.2239 36.2239 15 36.5 15C36.7761 15 37 15.2239 37 15.5ZM36.5 18C37.8807 18 39 16.8807 39 15.5C39 14.1193 37.8807 13 36.5 13C35.1193 13 34 14.1193 34 15.5C34 16.8807 35.1193 18 36.5 18ZM50 15C50 22.732 43.732 29 36 29C28.268 29 22 22.732 22 15C22 7.26801 28.268 1 36 1C43.732 1 50 7.26801 50 15Z" stroke="black" stroke-width="2"/>
<circle cx="3" cy="15" r="3" fill="#D9D9D9"/>
<circle cx="69" cy="15" r="3" fill="#D9D9D9"/>
<circle cx="90" cy="15" r="3" fill="#D9D9D9"/>
</svg>
