<svg width="18" height="21" viewBox="0 0 18 21" fill="none" xmlns="http://www.w3.org/2000/svg">
<path fill-rule="evenodd" clip-rule="evenodd" d="M8.71023 5.11874e-06C7.31938 -0.00184706 5.97472 0.499006 4.92399 1.41029C3.87327 2.32156 3.18727 3.58187 2.99239 4.959C2.79751 6.33612 3.10689 7.73728 3.86351 8.90432C4.62013 10.0714 5.77302 10.9256 7.10977 11.3098C5.21023 11.5405 3.58114 12.2118 2.35295 13.4225C0.790681 14.9609 0 17.2534 0 20.2443C0 20.4447 0.079616 20.6369 0.221334 20.7787C0.363052 20.9204 0.555262 21 0.755682 21C0.956101 21 1.14831 20.9204 1.29003 20.7787C1.43175 20.6369 1.51136 20.4447 1.51136 20.2443C1.51136 17.508 2.23204 15.6625 3.41409 14.498C4.59773 13.3318 6.36682 12.7273 8.71023 12.7273C11.0536 12.7273 12.8227 13.3318 14.008 14.498C15.1884 15.6641 15.9091 17.508 15.9091 20.2443C15.9091 20.4447 15.9887 20.6369 16.1304 20.7787C16.2721 20.9204 16.4643 21 16.6648 21C16.8652 21 17.0574 20.9204 17.1991 20.7787C17.3408 20.6369 17.4205 20.4447 17.4205 20.2443C17.4205 17.2534 16.6298 14.9625 15.0659 13.4225C13.8409 12.2134 12.2102 11.5405 10.3107 11.3098C11.643 10.9213 12.7906 10.0657 13.5433 8.89982C14.296 7.73391 14.6033 6.33579 14.4088 4.96172C14.2144 3.58765 13.5312 2.32968 12.4846 1.41839C11.438 0.507105 10.098 0.00354253 8.71023 5.11874e-06ZM4.45454 5.76705C4.45454 4.63837 4.90291 3.55592 5.701 2.75783C6.4991 1.95973 7.58155 1.51137 8.71023 1.51137C9.8389 1.51137 10.9214 1.95973 11.7194 2.75783C12.5175 3.55592 12.9659 4.63837 12.9659 5.76705C12.9659 6.89573 12.5175 7.97818 11.7194 8.77627C10.9214 9.57437 9.8389 10.0227 8.71023 10.0227C7.58155 10.0227 6.4991 9.57437 5.701 8.77627C4.90291 7.97818 4.45454 6.89573 4.45454 5.76705Z" fill="black"/>
</svg>
