<svg width="100" height="118" viewBox="0 0 100 118" fill="none" xmlns="http://www.w3.org/2000/svg">
<path id="Sequrity" d="M98.6646 22.6106C98.219 22.102 97.6732 21.6908 97.0614 21.4027C96.4495 21.1146 95.7847 20.9559 95.1086 20.9363C84.6054 20.6619 71.315 9.43618 62.528 5.03098C57.1001 2.31834 53.5167 0.529728 50.8257 0.0585595C50.2792 -0.0210241 49.7241 -0.0194827 49.1781 0.0631339C46.4871 0.534302 42.9036 2.32291 37.4804 5.03556C28.6933 9.43618 15.4029 20.6619 4.8997 20.9363C4.22315 20.9569 3.55802 21.116 2.94554 21.404C2.33307 21.692 1.7863 22.1027 1.33913 22.6106C0.412244 23.6588 -0.0659793 25.0287 0.00734063 26.4257C2.26359 72.2754 18.7164 100.651 47.5854 117.142C48.336 117.567 49.1689 117.787 49.9973 117.787C50.8257 117.787 51.6586 117.567 52.4137 117.142C81.2828 100.651 97.731 72.2754 99.9918 26.4257C100.069 25.0289 99.5925 23.6579 98.6646 22.6106ZM75.7085 40.6431L51.3474 76.5754C50.4733 77.8654 49.1003 78.7208 47.741 78.7208C46.3772 78.7208 44.8624 77.9751 43.9059 77.0191L26.7346 59.8512C26.1739 59.2887 25.8592 58.5271 25.8592 57.7332C25.8592 56.9393 26.1739 56.1777 26.7346 55.6152L30.977 51.3656C31.5409 50.8074 32.3024 50.4943 33.096 50.4943C33.8896 50.4943 34.6511 50.8074 35.215 51.3656L46.3818 62.5272L65.7819 33.9049C66.2308 33.2499 66.9207 32.7991 67.701 32.6508C68.4813 32.5025 69.2886 32.6689 69.9466 33.1135L74.9122 36.4803C75.5682 36.9283 76.0202 37.6175 76.1694 38.3975C76.3186 39.1775 76.1529 39.9848 75.7085 40.6431Z" fill="black"/>
</svg>
