<svg width="108" height="108" viewBox="0 0 108 108" fill="none" xmlns="http://www.w3.org/2000/svg">
<path d="M19.3846 46.3077H11.6923C9.65218 46.3077 7.69561 47.1181 6.25302 48.5607C4.81044 50.0033 4 51.9599 4 54V65.5385C4 67.5786 4.81044 69.5352 6.25302 70.9777C7.69561 72.4203 9.65218 73.2308 11.6923 73.2308H19.3846C20.4047 73.2308 21.383 72.8256 22.1043 72.1043C22.8255 71.383 23.2308 70.4047 23.2308 69.3846V50.1539C23.2308 49.1338 22.8255 48.1555 22.1043 47.4342C21.383 46.7129 20.4047 46.3077 19.3846 46.3077ZM19.3846 46.3077L19.3846 38.6154C19.3846 29.4348 23.0316 20.6303 29.5232 14.1386C36.0149 7.64697 44.8194 4 54 4C63.1806 4 71.9851 7.64697 78.4768 14.1386C84.9684 20.6303 88.6154 29.4348 88.6154 38.6154L88.6154 46.3077M88.6154 73.2308H96.3077C98.3478 73.2308 100.304 72.4203 101.747 70.9777C103.19 69.5352 104 67.5786 104 65.5385V54C104 51.9599 103.19 50.0033 101.747 48.5607C100.304 47.1181 98.3478 46.3077 96.3077 46.3077H88.6154M88.6154 73.2308C87.5953 73.2308 86.617 72.8256 85.8957 72.1043C85.1744 71.383 84.7692 70.4047 84.7692 69.3846V50.1539C84.7692 49.1338 85.1744 48.1555 85.8957 47.4342C86.617 46.7129 87.5953 46.3077 88.6154 46.3077M88.6154 73.2308V79C88.6154 83.0803 86.9945 86.9934 84.1093 89.8786C81.2242 92.7637 77.311 94.3846 73.2308 94.3846M73.2308 94.3846C73.2308 91.8345 72.2177 89.3887 70.4145 87.5855C68.6112 85.7823 66.1655 84.7692 63.6154 84.7692H52.0769C49.5267 84.7692 47.081 85.7823 45.2778 87.5855C43.4746 89.3887 42.4615 91.8345 42.4615 94.3846C42.4615 96.9348 43.4746 99.3805 45.2778 101.184C47.081 102.987 49.5267 104 52.0769 104H63.6154C66.1655 104 68.6112 102.987 70.4145 101.184C72.2177 99.3805 73.2308 96.9348 73.2308 94.3846ZM42.4615 30.9231V42.4615M65.5384 30.9231V42.4615M42.4615 57.8462C42.4615 68.0769 65.5384 68.0769 65.5384 57.8462" stroke="black" stroke-width="8" stroke-linecap="round" stroke-linejoin="round"/>
</svg>
