<svg width="145" height="20" viewBox="0 0 145 20" fill="none" xmlns="http://www.w3.org/2000/svg">
<g id="Social Media">
<path id="Vector" d="M101.04 19.54C102 19.83 102.97 20 104 20C106.652 20 109.196 18.9464 111.071 17.0711C112.946 15.1957 114 12.6522 114 10C114 8.68678 113.741 7.38642 113.239 6.17317C112.736 4.95991 112 3.85752 111.071 2.92893C110.142 2.00035 109.04 1.26375 107.827 0.761205C106.614 0.258658 105.313 0 104 0C102.687 0 101.386 0.258658 100.173 0.761205C98.9599 1.26375 97.8575 2.00035 96.9289 2.92893C95.0536 4.8043 94 7.34784 94 10C94 14.25 96.67 17.9 100.44 19.34C100.35 18.56 100.26 17.27 100.44 16.38L101.59 11.44C101.59 11.44 101.3 10.86 101.3 9.94C101.3 8.56 102.16 7.53 103.14 7.53C104 7.53 104.4 8.16 104.4 8.97C104.4 9.83 103.83 11.06 103.54 12.24C103.37 13.22 104.06 14.08 105.06 14.08C106.84 14.08 108.22 12.18 108.22 9.5C108.22 7.1 106.5 5.46 104.03 5.46C101.21 5.46 99.55 7.56 99.55 9.77C99.55 10.63 99.83 11.5 100.29 12.07C100.38 12.13 100.38 12.21 100.35 12.36L100.06 13.45C100.06 13.62 99.95 13.68 99.78 13.56C98.5 13 97.76 11.18 97.76 9.71C97.76 6.55 100 3.68 104.32 3.68C107.76 3.68 110.44 6.15 110.44 9.43C110.44 12.87 108.31 15.63 105.26 15.63C104.29 15.63 103.34 15.11 103 14.5L102.33 16.87C102.1 17.73 101.47 18.88 101.04 19.57V19.54Z" fill="black"/>
<path id="Vector_2" d="M135 0C140.523 0 145 4.477 145 10C145 15.523 140.523 20 135 20C133.233 20.0029 131.497 19.5352 129.97 18.645L125.004 20L126.356 15.032C125.465 13.5049 124.997 11.768 125 10C125 4.477 129.477 0 135 0ZM131.592 5.3L131.392 5.308C131.263 5.31589 131.136 5.3499 131.02 5.408C130.912 5.46943 130.813 5.54622 130.726 5.636C130.606 5.749 130.538 5.847 130.465 5.942C130.095 6.4229 129.896 7.01331 129.899 7.62C129.901 8.11 130.029 8.587 130.229 9.033C130.638 9.935 131.311 10.89 132.199 11.775C132.413 11.988 132.623 12.202 132.849 12.401C133.952 13.3725 135.267 14.073 136.689 14.447L137.257 14.534C137.442 14.544 137.627 14.53 137.813 14.521C138.104 14.506 138.389 14.4271 138.646 14.29C138.777 14.2225 138.905 14.1491 139.029 14.07C139.029 14.07 139.072 14.042 139.154 13.98C139.289 13.88 139.372 13.809 139.484 13.692C139.567 13.606 139.639 13.505 139.694 13.39C139.772 13.227 139.85 12.916 139.882 12.657C139.906 12.459 139.899 12.351 139.896 12.284C139.892 12.177 139.803 12.066 139.706 12.019L139.124 11.758C139.124 11.758 138.254 11.379 137.722 11.137C137.666 11.1127 137.607 11.0988 137.546 11.096C137.478 11.089 137.408 11.0967 137.343 11.1186C137.278 11.1405 137.218 11.1761 137.168 11.223C137.163 11.221 137.096 11.278 136.373 12.154C136.332 12.2098 136.274 12.2519 136.209 12.2751C136.143 12.2982 136.072 12.3013 136.005 12.284C135.94 12.2665 135.876 12.2445 135.814 12.218C135.69 12.166 135.647 12.146 135.562 12.11C134.988 11.8595 134.457 11.5211 133.987 11.107C133.861 10.997 133.744 10.877 133.624 10.761C133.231 10.3842 132.888 9.95801 132.604 9.493L132.545 9.398C132.503 9.33416 132.468 9.2653 132.443 9.193C132.405 9.046 132.504 8.928 132.504 8.928C132.504 8.928 132.747 8.662 132.86 8.518C132.97 8.378 133.063 8.242 133.123 8.145C133.241 7.955 133.278 7.76 133.216 7.609C132.936 6.925 132.646 6.244 132.348 5.568C132.289 5.434 132.114 5.338 131.955 5.319C131.901 5.313 131.847 5.307 131.793 5.303C131.659 5.29633 131.524 5.29766 131.39 5.307L131.591 5.299L131.592 5.3Z" fill="black"/>
<path id="Vector_3" d="M74.0286 0.0012304C74.7583 -0.00156983 75.488 0.00576429 76.2176 0.0232305L76.4116 0.0302304C76.6356 0.0382304 76.8566 0.0482304 77.1236 0.0602304C78.1876 0.11023 78.9136 0.278231 79.5506 0.525231C80.2106 0.779231 80.7666 1.12323 81.3226 1.67923C81.831 2.17884 82.2244 2.78318 82.4756 3.45023C82.7226 4.08723 82.8906 4.81423 82.9406 5.87823C82.9526 6.14423 82.9626 6.36623 82.9706 6.59023L82.9766 6.78423C82.9943 7.51342 83.002 8.24283 82.9996 8.97223L83.0006 9.71823V11.0282C83.003 11.758 82.9954 12.4877 82.9776 13.2172L82.9716 13.4112C82.9636 13.6352 82.9536 13.8562 82.9416 14.1232C82.8916 15.1872 82.7216 15.9132 82.4756 16.5502C82.2252 17.218 81.8317 17.8228 81.3226 18.3222C80.8225 18.8306 80.2179 19.224 79.5506 19.4752C78.9136 19.7222 78.1876 19.8902 77.1236 19.9402C76.8566 19.9522 76.6356 19.9622 76.4116 19.9702L76.2176 19.9762C75.4881 19.994 74.7583 20.0017 74.0286 19.9992L73.2826 20.0002H71.9736C71.2438 20.0027 70.5141 19.995 69.7846 19.9772L69.5906 19.9712C69.3532 19.9626 69.1158 19.9526 68.8786 19.9412C67.8146 19.8912 67.0886 19.7212 66.4506 19.4752C65.7833 19.2246 65.1788 18.8311 64.6796 18.3222C64.1706 17.8225 63.7768 17.2178 63.5256 16.5502C63.2786 15.9132 63.1106 15.1872 63.0606 14.1232C63.0494 13.8859 63.0394 13.6486 63.0306 13.4112L63.0256 13.2172C63.0071 12.4877 62.9988 11.758 63.0006 11.0282V8.97223C62.9978 8.24283 63.0051 7.51343 63.0226 6.78423L63.0296 6.59023C63.0376 6.36623 63.0476 6.14423 63.0596 5.87823C63.1096 4.81323 63.2776 4.08823 63.5246 3.45023C63.7759 2.78285 64.1705 2.17868 64.6806 1.68023C65.1795 1.17098 65.7835 0.776803 66.4506 0.525231C67.0886 0.278231 67.8136 0.11023 68.8786 0.0602304L69.5906 0.0302304L69.7846 0.0252306C70.5138 0.00680338 71.2432 -0.00153085 71.9726 0.000230468L74.0286 0.0012304ZM73.0006 5.00123C72.3381 4.99186 71.6803 5.11425 71.0656 5.3613C70.4508 5.60834 69.8912 5.97511 69.4194 6.44029C68.9476 6.90546 68.573 7.45977 68.3173 8.07099C68.0616 8.68222 67.9299 9.33817 67.9299 10.0007C67.9299 10.6633 68.0616 11.3192 68.3173 11.9305C68.573 12.5417 68.9476 13.096 69.4194 13.5612C69.8912 14.0264 70.4508 14.3931 71.0656 14.6402C71.6803 14.8872 72.3381 15.0096 73.0006 15.0002C74.3267 15.0002 75.5984 14.4734 76.5361 13.5358C77.4738 12.5981 78.0006 11.3263 78.0006 10.0002C78.0006 8.67415 77.4738 7.40238 76.5361 6.4647C75.5984 5.52701 74.3267 5.00123 73.0006 5.00123ZM73.0006 7.00123C73.3991 6.99389 73.7951 7.06603 74.1654 7.21344C74.5357 7.36085 74.8729 7.58057 75.1574 7.85978C75.4418 8.13898 75.6678 8.47206 75.822 8.83957C75.9763 9.20708 76.0558 9.60165 76.0558 10.0002C76.0559 10.3988 75.9766 10.7934 75.8224 11.1609C75.6683 11.5285 75.4424 11.8617 75.1581 12.141C74.8737 12.4203 74.5366 12.6401 74.1663 12.7876C73.796 12.9352 73.4001 13.0074 73.0016 13.0002C72.2059 13.0002 71.4429 12.6842 70.8803 12.1216C70.3176 11.5589 70.0016 10.7959 70.0016 10.0002C70.0016 9.20458 70.3176 8.44152 70.8803 7.87891C71.4429 7.3163 72.2059 7.00023 73.0016 7.00023L73.0006 7.00123ZM78.2506 3.50123C77.928 3.51414 77.6229 3.65138 77.3992 3.8842C77.1755 4.11702 77.0506 4.42736 77.0506 4.75023C77.0506 5.0731 77.1755 5.38344 77.3992 5.61626C77.6229 5.84908 77.928 5.98632 78.2506 5.99923C78.5821 5.99923 78.9 5.86753 79.1345 5.63311C79.3689 5.39869 79.5006 5.08075 79.5006 4.74923C79.5006 4.41771 79.3689 4.09977 79.1345 3.86535C78.9 3.63093 78.5821 3.49923 78.2506 3.49923V3.50123Z" fill="black"/>
<path id="Vector_4" d="M51.92 3C51.15 3.35 50.32 3.58 49.46 3.69C50.34 3.16 51.02 2.32 51.34 1.31C50.51 1.81 49.59 2.16 48.62 2.36C47.83 1.5 46.72 1 45.46 1C43.11 1 41.19 2.92 41.19 5.29C41.19 5.63 41.23 5.96 41.3 6.27C37.74 6.09 34.57 4.38 32.46 1.79C32.09 2.42 31.88 3.16 31.88 3.94C31.88 5.43 32.63 6.75 33.79 7.5C33.08 7.5 32.42 7.3 31.84 7V7.03C31.84 9.11 33.32 10.85 35.28 11.24C34.6507 11.4122 33.9901 11.4362 33.35 11.31C33.6216 12.1625 34.1535 12.9084 34.871 13.4429C35.5885 13.9775 36.4554 14.2737 37.35 14.29C35.8336 15.4904 33.954 16.1393 32.02 16.13C31.68 16.13 31.34 16.11 31 16.07C32.9 17.29 35.16 18 37.58 18C45.46 18 49.79 11.46 49.79 5.79C49.79 5.6 49.79 5.42 49.78 5.23C50.62 4.63 51.34 3.87 51.92 3Z" fill="black"/>
<path id="Vector_5" d="M20 10C20 4.48 15.52 0 10 0C4.48 0 0 4.48 0 10C0 14.84 3.44 18.87 8 19.8V13H6V10H8V7.5C8 5.57 9.57 4 11.5 4H14V7H12C11.45 7 11 7.45 11 8V10H14V13H11V19.95C16.05 19.45 20 15.19 20 10Z" fill="black"/>
</g>
</svg>
