<svg width="67" height="11" viewBox="0 0 67 11" fill="none" xmlns="http://www.w3.org/2000/svg">
<g id="Star Vector">
<path d="M5.5 8.3985L8.899 10.45L7.997 6.5835L11 3.982L7.0455 3.6465L5.5 0L3.9545 3.6465L0 3.982L3.003 6.5835L2.101 10.45L5.5 8.3985Z" fill="#FFC700"/>
<path d="M19.5 8.3985L22.899 10.45L21.997 6.5835L25 3.982L21.0455 3.6465L19.5 0L17.9545 3.6465L14 3.982L17.003 6.5835L16.101 10.45L19.5 8.3985Z" fill="#FFC700"/>
<path d="M33.5 8.3985L36.899 10.45L35.997 6.5835L39 3.982L35.0455 3.6465L33.5 0L31.9545 3.6465L28 3.982L31.003 6.5835L30.101 10.45L33.5 8.3985Z" fill="#FFC700"/>
<path d="M47.5 8.3985L50.899 10.45L49.997 6.5835L53 3.982L49.0455 3.6465L47.5 0L45.9545 3.6465L42 3.982L45.003 6.5835L44.101 10.45L47.5 8.3985Z" fill="#FFC700"/>
<path d="M61.5 8.3985L64.899 10.45L63.997 6.5835L67 3.982L63.0455 3.6465L61.5 0L59.9545 3.6465L56 3.982L59.003 6.5835L58.101 10.45L61.5 8.3985Z" fill="#FFC700"/>
</g>
</svg>
