<svg width="276" height="19" viewBox="0 0 276 19" fill="none" xmlns="http://www.w3.org/2000/svg">
<path d="M13.2396 9.408C13.2396 10.912 13.0756 12.216 12.7476 13.32C12.4276 14.416 11.9876 15.324 11.4276 16.044C10.8676 16.764 10.2036 17.3 9.43561 17.652C8.67561 18.004 7.85961 18.18 6.98761 18.18C6.10761 18.18 5.28761 18.004 4.52761 17.652C3.77561 17.3 3.11961 16.764 2.55961 16.044C1.99961 15.324 1.55961 14.416 1.23961 13.32C0.919612 12.216 0.759612 10.912 0.759612 9.408C0.759612 7.904 0.919612 6.6 1.23961 5.496C1.55961 4.392 1.99961 3.48 2.55961 2.76C3.11961 2.032 3.77561 1.492 4.52761 1.14C5.28761 0.787999 6.10761 0.611999 6.98761 0.611999C7.85961 0.611999 8.67561 0.787999 9.43561 1.14C10.2036 1.492 10.8676 2.032 11.4276 2.76C11.9876 3.48 12.4276 4.392 12.7476 5.496C13.0756 6.6 13.2396 7.904 13.2396 9.408ZM11.0196 9.408C11.0196 8.096 10.9076 6.996 10.6836 6.108C10.4676 5.212 10.1716 4.492 9.79561 3.948C9.42761 3.404 8.99961 3.016 8.51161 2.784C8.02361 2.544 7.51561 2.424 6.98761 2.424C6.45961 2.424 5.95161 2.544 5.46361 2.784C4.97561 3.016 4.54761 3.404 4.17961 3.948C3.81161 4.492 3.51561 5.212 3.29161 6.108C3.07561 6.996 2.96761 8.096 2.96761 9.408C2.96761 10.72 3.07561 11.82 3.29161 12.708C3.51561 13.596 3.81161 14.312 4.17961 14.856C4.54761 15.4 4.97561 15.792 5.46361 16.032C5.95161 16.264 6.45961 16.38 6.98761 16.38C7.51561 16.38 8.02361 16.264 8.51161 16.032C8.99961 15.792 9.42761 15.4 9.79561 14.856C10.1716 14.312 10.4676 13.596 10.6836 12.708C10.9076 11.82 11.0196 10.72 11.0196 9.408ZM18.3055 7.296C19.2015 7.104 20.0255 7.008 20.7775 7.008C21.6735 7.008 22.4655 7.14 23.1535 7.404C23.8415 7.668 24.4135 8.032 24.8695 8.496C25.3335 8.96 25.6815 9.508 25.9135 10.14C26.1535 10.772 26.2735 11.46 26.2735 12.204C26.2735 13.116 26.1135 13.94 25.7935 14.676C25.4815 15.412 25.0455 16.044 24.4855 16.572C23.9335 17.092 23.2815 17.492 22.5295 17.772C21.7775 18.052 20.9655 18.192 20.0935 18.192C19.5895 18.192 19.1055 18.14 18.6415 18.036C18.1775 17.94 17.7415 17.808 17.3335 17.64C16.9335 17.472 16.5615 17.28 16.2175 17.064C15.8735 16.848 15.5695 16.62 15.3055 16.38L15.9655 15.468C16.1095 15.26 16.2975 15.156 16.5295 15.156C16.6895 15.156 16.8695 15.22 17.0695 15.348C17.2695 15.468 17.5135 15.604 17.8015 15.756C18.0895 15.908 18.4255 16.048 18.8095 16.176C19.2015 16.296 19.6655 16.356 20.2015 16.356C20.8015 16.356 21.3415 16.26 21.8215 16.068C22.3015 15.876 22.7135 15.604 23.0575 15.252C23.4015 14.892 23.6655 14.464 23.8495 13.968C24.0335 13.472 24.1255 12.916 24.1255 12.3C24.1255 11.764 24.0455 11.28 23.8855 10.848C23.7335 10.416 23.4975 10.048 23.1775 9.744C22.8655 9.44 22.4735 9.204 22.0015 9.036C21.5295 8.868 20.9775 8.784 20.3455 8.784C19.9135 8.784 19.4615 8.82 18.9895 8.892C18.5255 8.964 18.0495 9.08 17.5615 9.24L16.2175 8.844L17.5975 0.803999H25.7455V1.74C25.7455 2.044 25.6495 2.296 25.4575 2.496C25.2735 2.688 24.9535 2.784 24.4975 2.784H19.0975L18.3055 7.296ZM53.9459 16.68C53.9459 16.472 53.9819 16.276 54.0539 16.092C54.1339 15.908 54.2379 15.748 54.3659 15.612C54.5019 15.476 54.6619 15.368 54.8459 15.288C55.0299 15.208 55.2259 15.168 55.4339 15.168C55.6419 15.168 55.8379 15.208 56.0219 15.288C56.2059 15.368 56.3659 15.476 56.5019 15.612C56.6379 15.748 56.7459 15.908 56.8259 16.092C56.9059 16.276 56.9459 16.472 56.9459 16.68C56.9459 16.896 56.9059 17.096 56.8259 17.28C56.7459 17.456 56.6379 17.612 56.5019 17.748C56.3659 17.884 56.2059 17.988 56.0219 18.06C55.8379 18.14 55.6419 18.18 55.4339 18.18C55.2259 18.18 55.0299 18.14 54.8459 18.06C54.6619 17.988 54.5019 17.884 54.3659 17.748C54.2379 17.612 54.1339 17.456 54.0539 17.28C53.9819 17.096 53.9459 16.896 53.9459 16.68ZM53.9459 7.68C53.9459 7.472 53.9819 7.276 54.0539 7.092C54.1339 6.908 54.2379 6.748 54.3659 6.612C54.5019 6.476 54.6619 6.368 54.8459 6.288C55.0299 6.208 55.2259 6.168 55.4339 6.168C55.6419 6.168 55.8379 6.208 56.0219 6.288C56.2059 6.368 56.3659 6.476 56.5019 6.612C56.6379 6.748 56.7459 6.908 56.8259 7.092C56.9059 7.276 56.9459 7.472 56.9459 7.68C56.9459 7.896 56.9059 8.096 56.8259 8.28C56.7459 8.456 56.6379 8.612 56.5019 8.748C56.3659 8.884 56.2059 8.992 56.0219 9.072C55.8379 9.144 55.6419 9.18 55.4339 9.18C55.2259 9.18 55.0299 9.144 54.8459 9.072C54.6619 8.992 54.5019 8.884 54.3659 8.748C54.2379 8.612 54.1339 8.456 54.0539 8.28C53.9819 8.096 53.9459 7.896 53.9459 7.68ZM96.2084 9.408C96.2084 10.912 96.0444 12.216 95.7164 13.32C95.3964 14.416 94.9564 15.324 94.3964 16.044C93.8364 16.764 93.1724 17.3 92.4044 17.652C91.6444 18.004 90.8284 18.18 89.9564 18.18C89.0764 18.18 88.2564 18.004 87.4964 17.652C86.7444 17.3 86.0884 16.764 85.5284 16.044C84.9684 15.324 84.5284 14.416 84.2084 13.32C83.8884 12.216 83.7284 10.912 83.7284 9.408C83.7284 7.904 83.8884 6.6 84.2084 5.496C84.5284 4.392 84.9684 3.48 85.5284 2.76C86.0884 2.032 86.7444 1.492 87.4964 1.14C88.2564 0.787999 89.0764 0.611999 89.9564 0.611999C90.8284 0.611999 91.6444 0.787999 92.4044 1.14C93.1724 1.492 93.8364 2.032 94.3964 2.76C94.9564 3.48 95.3964 4.392 95.7164 5.496C96.0444 6.6 96.2084 7.904 96.2084 9.408ZM93.9884 9.408C93.9884 8.096 93.8764 6.996 93.6524 6.108C93.4364 5.212 93.1404 4.492 92.7644 3.948C92.3964 3.404 91.9684 3.016 91.4804 2.784C90.9924 2.544 90.4844 2.424 89.9564 2.424C89.4284 2.424 88.9204 2.544 88.4324 2.784C87.9444 3.016 87.5164 3.404 87.1484 3.948C86.7804 4.492 86.4844 5.212 86.2604 6.108C86.0444 6.996 85.9364 8.096 85.9364 9.408C85.9364 10.72 86.0444 11.82 86.2604 12.708C86.4844 13.596 86.7804 14.312 87.1484 14.856C87.5164 15.4 87.9444 15.792 88.4324 16.032C88.9204 16.264 89.4284 16.38 89.9564 16.38C90.4844 16.38 90.9924 16.264 91.4804 16.032C91.9684 15.792 92.3964 15.4 92.7644 14.856C93.1404 14.312 93.4364 13.596 93.6524 12.708C93.8764 11.82 93.9884 10.72 93.9884 9.408ZM109.902 0.803999V1.764C109.902 2.036 109.87 2.26 109.806 2.436C109.75 2.612 109.694 2.76 109.638 2.88L102.51 17.244C102.406 17.452 102.262 17.632 102.078 17.784C101.894 17.928 101.65 18 101.346 18H99.8102L107.034 3.816C107.138 3.616 107.246 3.432 107.358 3.264C107.47 3.096 107.59 2.936 107.718 2.784H98.7422C98.6062 2.784 98.4862 2.732 98.3822 2.628C98.2782 2.516 98.2262 2.392 98.2262 2.256V0.803999H109.902ZM136.915 16.68C136.915 16.472 136.951 16.276 137.023 16.092C137.103 15.908 137.207 15.748 137.335 15.612C137.471 15.476 137.631 15.368 137.815 15.288C137.999 15.208 138.195 15.168 138.403 15.168C138.611 15.168 138.807 15.208 138.991 15.288C139.175 15.368 139.335 15.476 139.471 15.612C139.607 15.748 139.715 15.908 139.795 16.092C139.875 16.276 139.915 16.472 139.915 16.68C139.915 16.896 139.875 17.096 139.795 17.28C139.715 17.456 139.607 17.612 139.471 17.748C139.335 17.884 139.175 17.988 138.991 18.06C138.807 18.14 138.611 18.18 138.403 18.18C138.195 18.18 137.999 18.14 137.815 18.06C137.631 17.988 137.471 17.884 137.335 17.748C137.207 17.612 137.103 17.456 137.023 17.28C136.951 17.096 136.915 16.896 136.915 16.68ZM136.915 7.68C136.915 7.472 136.951 7.276 137.023 7.092C137.103 6.908 137.207 6.748 137.335 6.612C137.471 6.476 137.631 6.368 137.815 6.288C137.999 6.208 138.195 6.168 138.403 6.168C138.611 6.168 138.807 6.208 138.991 6.288C139.175 6.368 139.335 6.476 139.471 6.612C139.607 6.748 139.715 6.908 139.795 7.092C139.875 7.276 139.915 7.472 139.915 7.68C139.915 7.896 139.875 8.096 139.795 8.28C139.715 8.456 139.607 8.612 139.471 8.748C139.335 8.884 139.175 8.992 138.991 9.072C138.807 9.144 138.611 9.18 138.403 9.18C138.195 9.18 137.999 9.144 137.815 9.072C137.631 8.992 137.471 8.884 137.335 8.748C137.207 8.612 137.103 8.456 137.023 8.28C136.951 8.096 136.915 7.896 136.915 7.68ZM179.177 9.408C179.177 10.912 179.013 12.216 178.685 13.32C178.365 14.416 177.925 15.324 177.365 16.044C176.805 16.764 176.141 17.3 175.373 17.652C174.613 18.004 173.797 18.18 172.925 18.18C172.045 18.18 171.225 18.004 170.465 17.652C169.713 17.3 169.057 16.764 168.497 16.044C167.937 15.324 167.497 14.416 167.177 13.32C166.857 12.216 166.697 10.912 166.697 9.408C166.697 7.904 166.857 6.6 167.177 5.496C167.497 4.392 167.937 3.48 168.497 2.76C169.057 2.032 169.713 1.492 170.465 1.14C171.225 0.787999 172.045 0.611999 172.925 0.611999C173.797 0.611999 174.613 0.787999 175.373 1.14C176.141 1.492 176.805 2.032 177.365 2.76C177.925 3.48 178.365 4.392 178.685 5.496C179.013 6.6 179.177 7.904 179.177 9.408ZM176.957 9.408C176.957 8.096 176.845 6.996 176.621 6.108C176.405 5.212 176.109 4.492 175.733 3.948C175.365 3.404 174.937 3.016 174.449 2.784C173.961 2.544 173.453 2.424 172.925 2.424C172.397 2.424 171.889 2.544 171.401 2.784C170.913 3.016 170.485 3.404 170.117 3.948C169.749 4.492 169.453 5.212 169.229 6.108C169.013 6.996 168.905 8.096 168.905 9.408C168.905 10.72 169.013 11.82 169.229 12.708C169.453 13.596 169.749 14.312 170.117 14.856C170.485 15.4 170.913 15.792 171.401 16.032C171.889 16.264 172.397 16.38 172.925 16.38C173.453 16.38 173.961 16.264 174.449 16.032C174.937 15.792 175.365 15.4 175.733 14.856C176.109 14.312 176.405 13.596 176.621 12.708C176.845 11.82 176.957 10.72 176.957 9.408ZM183.295 5.856C183.295 6.4 183.371 6.888 183.523 7.32C183.683 7.744 183.907 8.104 184.195 8.4C184.491 8.696 184.847 8.92 185.263 9.072C185.687 9.224 186.159 9.3 186.679 9.3C187.255 9.3 187.763 9.208 188.203 9.024C188.651 8.832 189.027 8.58 189.331 8.268C189.635 7.956 189.867 7.596 190.027 7.188C190.187 6.78 190.267 6.356 190.267 5.916C190.267 5.38 190.179 4.896 190.003 4.464C189.835 4.024 189.599 3.652 189.295 3.348C188.991 3.044 188.627 2.812 188.203 2.652C187.787 2.484 187.327 2.4 186.823 2.4C186.295 2.4 185.815 2.488 185.383 2.664C184.951 2.832 184.579 3.068 184.267 3.372C183.955 3.676 183.715 4.04 183.547 4.464C183.379 4.888 183.295 5.352 183.295 5.856ZM188.287 11.148C188.463 10.916 188.627 10.696 188.779 10.488C188.931 10.28 189.075 10.072 189.211 9.864C188.771 10.216 188.275 10.484 187.723 10.668C187.171 10.852 186.587 10.944 185.971 10.944C185.323 10.944 184.707 10.836 184.123 10.62C183.547 10.404 183.039 10.088 182.599 9.672C182.159 9.248 181.807 8.732 181.543 8.124C181.287 7.508 181.159 6.804 181.159 6.012C181.159 5.26 181.299 4.556 181.579 3.9C181.859 3.244 182.251 2.672 182.755 2.184C183.259 1.696 183.859 1.312 184.555 1.032C185.251 0.751999 186.015 0.611999 186.847 0.611999C187.671 0.611999 188.419 0.747999 189.091 1.02C189.763 1.292 190.339 1.672 190.819 2.16C191.299 2.648 191.667 3.232 191.923 3.912C192.187 4.592 192.319 5.344 192.319 6.168C192.319 6.664 192.271 7.136 192.175 7.584C192.087 8.024 191.955 8.46 191.779 8.892C191.611 9.316 191.403 9.74 191.155 10.164C190.907 10.58 190.627 11.008 190.315 11.448L186.127 17.496C186.023 17.648 185.875 17.772 185.683 17.868C185.491 17.956 185.271 18 185.023 18H183.055L188.287 11.148ZM219.883 16.68C219.883 16.472 219.919 16.276 219.991 16.092C220.071 15.908 220.175 15.748 220.303 15.612C220.439 15.476 220.599 15.368 220.783 15.288C220.967 15.208 221.163 15.168 221.371 15.168C221.579 15.168 221.775 15.208 221.959 15.288C222.143 15.368 222.303 15.476 222.439 15.612C222.575 15.748 222.683 15.908 222.763 16.092C222.843 16.276 222.883 16.472 222.883 16.68C222.883 16.896 222.843 17.096 222.763 17.28C222.683 17.456 222.575 17.612 222.439 17.748C222.303 17.884 222.143 17.988 221.959 18.06C221.775 18.14 221.579 18.18 221.371 18.18C221.163 18.18 220.967 18.14 220.783 18.06C220.599 17.988 220.439 17.884 220.303 17.748C220.175 17.612 220.071 17.456 219.991 17.28C219.919 17.096 219.883 16.896 219.883 16.68ZM219.883 7.68C219.883 7.472 219.919 7.276 219.991 7.092C220.071 6.908 220.175 6.748 220.303 6.612C220.439 6.476 220.599 6.368 220.783 6.288C220.967 6.208 221.163 6.168 221.371 6.168C221.579 6.168 221.775 6.208 221.959 6.288C222.143 6.368 222.303 6.476 222.439 6.612C222.575 6.748 222.683 6.908 222.763 7.092C222.843 7.276 222.883 7.472 222.883 7.68C222.883 7.896 222.843 8.096 222.763 8.28C222.683 8.456 222.575 8.612 222.439 8.748C222.303 8.884 222.143 8.992 221.959 9.072C221.775 9.144 221.579 9.18 221.371 9.18C221.163 9.18 220.967 9.144 220.783 9.072C220.599 8.992 220.439 8.884 220.303 8.748C220.175 8.612 220.071 8.456 219.991 8.28C219.919 8.096 219.883 7.896 219.883 7.68ZM262.146 9.408C262.146 10.912 261.982 12.216 261.654 13.32C261.334 14.416 260.894 15.324 260.334 16.044C259.774 16.764 259.11 17.3 258.342 17.652C257.582 18.004 256.766 18.18 255.894 18.18C255.014 18.18 254.194 18.004 253.434 17.652C252.682 17.3 252.026 16.764 251.466 16.044C250.906 15.324 250.466 14.416 250.146 13.32C249.826 12.216 249.666 10.912 249.666 9.408C249.666 7.904 249.826 6.6 250.146 5.496C250.466 4.392 250.906 3.48 251.466 2.76C252.026 2.032 252.682 1.492 253.434 1.14C254.194 0.787999 255.014 0.611999 255.894 0.611999C256.766 0.611999 257.582 0.787999 258.342 1.14C259.11 1.492 259.774 2.032 260.334 2.76C260.894 3.48 261.334 4.392 261.654 5.496C261.982 6.6 262.146 7.904 262.146 9.408ZM259.926 9.408C259.926 8.096 259.814 6.996 259.59 6.108C259.374 5.212 259.078 4.492 258.702 3.948C258.334 3.404 257.906 3.016 257.418 2.784C256.93 2.544 256.422 2.424 255.894 2.424C255.366 2.424 254.858 2.544 254.37 2.784C253.882 3.016 253.454 3.404 253.086 3.948C252.718 4.492 252.422 5.212 252.198 6.108C251.982 6.996 251.874 8.096 251.874 9.408C251.874 10.72 251.982 11.82 252.198 12.708C252.422 13.596 252.718 14.312 253.086 14.856C253.454 15.4 253.882 15.792 254.37 16.032C254.858 16.264 255.366 16.38 255.894 16.38C256.422 16.38 256.93 16.264 257.418 16.032C257.906 15.792 258.334 15.4 258.702 14.856C259.078 14.312 259.374 13.596 259.59 12.708C259.814 11.82 259.926 10.72 259.926 9.408ZM264.428 5.46C264.54 4.676 264.756 3.984 265.076 3.384C265.396 2.776 265.8 2.268 266.288 1.86C266.784 1.452 267.348 1.144 267.98 0.935999C268.62 0.719999 269.308 0.611999 270.044 0.611999C270.772 0.611999 271.444 0.715999 272.06 0.923999C272.676 1.132 273.204 1.428 273.644 1.812C274.092 2.196 274.44 2.66 274.688 3.204C274.936 3.748 275.06 4.352 275.06 5.016C275.06 5.56 274.988 6.048 274.844 6.48C274.708 6.904 274.508 7.276 274.244 7.596C273.988 7.916 273.676 8.188 273.308 8.412C272.94 8.636 272.528 8.82 272.072 8.964C273.192 9.252 274.032 9.748 274.592 10.452C275.16 11.148 275.444 12.02 275.444 13.068C275.444 13.86 275.292 14.572 274.988 15.204C274.692 15.836 274.284 16.376 273.764 16.824C273.244 17.264 272.636 17.604 271.94 17.844C271.252 18.076 270.512 18.192 269.72 18.192C268.808 18.192 268.028 18.08 267.38 17.856C266.732 17.624 266.184 17.308 265.736 16.908C265.288 16.508 264.92 16.036 264.632 15.492C264.344 14.94 264.1 14.344 263.9 13.704L264.824 13.32C265.064 13.216 265.296 13.188 265.52 13.236C265.752 13.284 265.92 13.416 266.024 13.632C266.128 13.856 266.256 14.124 266.408 14.436C266.568 14.748 266.784 15.048 267.056 15.336C267.328 15.624 267.672 15.868 268.088 16.068C268.512 16.268 269.048 16.368 269.696 16.368C270.296 16.368 270.82 16.272 271.268 16.08C271.724 15.88 272.1 15.624 272.396 15.312C272.7 15 272.928 14.652 273.08 14.268C273.232 13.884 273.308 13.504 273.308 13.128C273.308 12.664 273.248 12.24 273.128 11.856C273.008 11.472 272.784 11.14 272.456 10.86C272.128 10.58 271.676 10.36 271.1 10.2C270.532 10.04 269.8 9.96 268.904 9.96V8.412C269.64 8.404 270.264 8.324 270.776 8.172C271.296 8.02 271.716 7.812 272.036 7.548C272.364 7.284 272.6 6.968 272.744 6.6C272.896 6.232 272.972 5.824 272.972 5.376C272.972 4.88 272.892 4.448 272.732 4.08C272.58 3.712 272.368 3.408 272.096 3.168C271.824 2.928 271.5 2.748 271.124 2.628C270.756 2.508 270.356 2.448 269.924 2.448C269.492 2.448 269.088 2.512 268.712 2.64C268.344 2.768 268.016 2.948 267.728 3.18C267.448 3.404 267.212 3.672 267.02 3.984C266.828 4.296 266.692 4.64 266.612 5.016C266.508 5.296 266.376 5.484 266.216 5.58C266.064 5.668 265.84 5.692 265.544 5.652L264.428 5.46Z" fill="black"/>
</svg>
